<svg width="900" height="650" viewBox="0 0 900 650" xmlns="http://www.w3.org/2000/svg"><defs><linearGradient id="panel" x1="0" x2="1"><stop offset="0%" stop-color="#0d1117"/><stop offset="100%" stop-color="#111827"/></linearGradient><style>.title{font:700 24px Inter,Segoe UI,Arial,sans-serif;fill:#fff}.panel-title{font:700 15px Inter,Segoe UI,Arial,sans-serif;fill:#c9d1d9}.label{font:600 13px Inter,Segoe UI,Arial,sans-serif;fill:#8b949e}.value{font:800 30px Inter,Segoe UI,Arial,sans-serif}.sub{font:500 12px Inter,Segoe UI,Arial,sans-serif;fill:#8b949e}.small{font:500 11px Inter,Segoe UI,Arial,sans-serif;fill:#6e7681}</style></defs><rect width="900" height="650" rx="18" fill="#0d1117"/><rect x="16" y="16" width="868" height="618" rx="18" fill="url(#panel)" stroke="#30363d"/><text x="36" y="54" class="title">📊 GitHub Monitoring Dashboard</text><text x="36" y="78" class="sub">custom SVG dashboard · updated automatically by GitHub Actions</text><text x="864" y="78" class="small" text-anchor="end">updated: 2026-06-19 10:40 UTC</text><rect x="36" y="110" width="190" height="110" rx="14" fill="#111827" stroke="#30363d"/><text x="54" y="138" class="label">Contributions</text><text x="54" y="176" class="value" fill="#58a6ff">314</text><text x="54" y="202" class="sub">last 12 months</text><rect x="246" y="110" width="190" height="110" rx="14" fill="#111827" stroke="#30363d"/><text x="264" y="138" class="label">Repositories</text><text x="264" y="176" class="value" fill="#bc8cff">39</text><text x="264" y="202" class="sub">26 updated recently</text><rect x="456" y="110" width="190" height="110" rx="14" fill="#111827" stroke="#30363d"/><text x="474" y="138" class="label">Stars</text><text x="474" y="176" class="value" fill="#e3b341">0</text><text x="474" y="202" class="sub">0 forks</text><rect x="666" y="110" width="180" height="110" rx="14" fill="#111827" stroke="#30363d"/><text x="684" y="138" class="label">Followers</text><text x="684" y="176" class="value" fill="#3fb950">3</text><text x="684" y="202" class="sub">following 13</text><text x="46" y="262" class="panel-title">Contribution Activity · Last 31 Days</text><rect x="46" y="280" width="520" height="190" rx="12" fill="#0b1220" stroke="#30363d"/><line x1="46" y1="280.0" x2="566" y2="280.0" stroke="#263241" stroke-width="1"/><line x1="46" y1="327.5" x2="566" y2="327.5" stroke="#263241" stroke-width="1"/><line x1="46" y1="375.0" x2="566" y2="375.0" stroke="#263241" stroke-width="1"/><line x1="46" y1="422.5" x2="566" y2="422.5" stroke="#263241" stroke-width="1"/><line x1="46" y1="470.0" x2="566" y2="470.0" stroke="#263241" stroke-width="1"/><line x1="46.0" y1="280" x2="46.0" y2="470" stroke="#1f2937" stroke-width="1"/><line x1="132.7" y1="280" x2="132.7" y2="470" stroke="#1f2937" stroke-width="1"/><line x1="219.3" y1="280" x2="219.3" y2="470" stroke="#1f2937" stroke-width="1"/><line x1="306.0" y1="280" x2="306.0" y2="470" stroke="#1f2937" stroke-width="1"/><line x1="392.7" y1="280" x2="392.7" y2="470" stroke="#1f2937" stroke-width="1"/><line x1="479.3" y1="280" x2="479.3" y2="470" stroke="#1f2937" stroke-width="1"/><line x1="566.0" y1="280" x2="566.0" y2="470" stroke="#1f2937" stroke-width="1"/><path d="M46.0,390.8 L63.3,470.0 L80.7,435.2 L98.0,416.2 L115.3,470.0 L132.7,451.0 L150.0,463.7 L167.3,470.0 L184.7,470.0 L202.0,470.0 L219.3,444.7 L236.7,330.7 L254.0,280.0 L271.3,441.5 L288.7,457.3 L306.0,454.2 L323.3,457.3 L340.7,457.3 L358.0,425.7 L375.3,457.3 L392.7,451.0 L410.0,454.2 L427.3,457.3 L444.7,457.3 L462.0,457.3 L479.3,457.3 L496.7,460.5 L514.0,457.3 L531.3,457.3 L548.7,457.3 L566.0,466.8 L566,470 L46,470 Z" fill="#1f6feb" opacity="0.18"/><path d="M46.0,390.8 L63.3,470.0 L80.7,435.2 L98.0,416.2 L115.3,470.0 L132.7,451.0 L150.0,463.7 L167.3,470.0 L184.7,470.0 L202.0,470.0 L219.3,444.7 L236.7,330.7 L254.0,280.0 L271.3,441.5 L288.7,457.3 L306.0,454.2 L323.3,457.3 L340.7,457.3 L358.0,425.7 L375.3,457.3 L392.7,451.0 L410.0,454.2 L427.3,457.3 L444.7,457.3 L462.0,457.3 L479.3,457.3 L496.7,460.5 L514.0,457.3 L531.3,457.3 L548.7,457.3 L566.0,466.8" fill="none" stroke="#58a6ff" stroke-width="3"/><circle cx="46.0" cy="390.8" r="2.5" fill="#58a6ff"/><circle cx="63.3" cy="470.0" r="2.5" fill="#58a6ff"/><circle cx="80.7" cy="435.2" r="2.5" fill="#58a6ff"/><circle cx="98.0" cy="416.2" r="2.5" fill="#58a6ff"/><circle cx="115.3" cy="470.0" r="2.5" fill="#58a6ff"/><circle cx="132.7" cy="451.0" r="2.5" fill="#58a6ff"/><circle cx="150.0" cy="463.7" r="2.5" fill="#58a6ff"/><circle cx="167.3" cy="470.0" r="2.5" fill="#58a6ff"/><circle cx="184.7" cy="470.0" r="2.5" fill="#58a6ff"/><circle cx="202.0" cy="470.0" r="2.5" fill="#58a6ff"/><circle cx="219.3" cy="444.7" r="2.5" fill="#58a6ff"/><circle cx="236.7" cy="330.7" r="2.5" fill="#58a6ff"/><circle cx="254.0" cy="280.0" r="2.5" fill="#58a6ff"/><circle cx="271.3" cy="441.5" r="2.5" fill="#58a6ff"/><circle cx="288.7" cy="457.3" r="2.5" fill="#58a6ff"/><circle cx="306.0" cy="454.2" r="2.5" fill="#58a6ff"/><circle cx="323.3" cy="457.3" r="2.5" fill="#58a6ff"/><circle cx="340.7" cy="457.3" r="2.5" fill="#58a6ff"/><circle cx="358.0" cy="425.7" r="2.5" fill="#58a6ff"/><circle cx="375.3" cy="457.3" r="2.5" fill="#58a6ff"/><circle cx="392.7" cy="451.0" r="2.5" fill="#58a6ff"/><circle cx="410.0" cy="454.2" r="2.5" fill="#58a6ff"/><circle cx="427.3" cy="457.3" r="2.5" fill="#58a6ff"/><circle cx="444.7" cy="457.3" r="2.5" fill="#58a6ff"/><circle cx="462.0" cy="457.3" r="2.5" fill="#58a6ff"/><circle cx="479.3" cy="457.3" r="2.5" fill="#58a6ff"/><circle cx="496.7" cy="460.5" r="2.5" fill="#58a6ff"/><circle cx="514.0" cy="457.3" r="2.5" fill="#58a6ff"/><circle cx="531.3" cy="457.3" r="2.5" fill="#58a6ff"/><circle cx="548.7" cy="457.3" r="2.5" fill="#58a6ff"/><circle cx="566.0" cy="466.8" r="2.5" fill="#58a6ff"/><text x="46" y="492" class="sub">max/day: 60</text><rect x="602" y="250" width="244" height="250" rx="14" fill="#111827" stroke="#30363d"/><text x="626" y="284" class="panel-title">Repository Languages</text><text x="626" y="322" class="sub">Other</text><rect x="736" y="308" width="70" height="12" rx="6" fill="#1f2937"/><rect x="736" y="308" width="44" height="12" rx="6" fill="#58a6ff"/><text x="816" y="320" class="sub" text-anchor="end">24</text><text x="626" y="352" class="sub">Python</text><rect x="736" y="338" width="70" height="12" rx="6" fill="#1f2937"/><rect x="736" y="338" width="9" height="12" rx="6" fill="#bc8cff"/><text x="816" y="350" class="sub" text-anchor="end">5</text><text x="626" y="382" class="sub">C++</text><rect x="736" y="368" width="70" height="12" rx="6" fill="#1f2937"/><rect x="736" y="368" width="7" height="12" rx="6" fill="#3fb950"/><text x="816" y="380" class="sub" text-anchor="end">4</text><text x="626" y="412" class="sub">JavaScript</text><rect x="736" y="398" width="70" height="12" rx="6" fill="#1f2937"/><rect x="736" y="398" width="3" height="12" rx="6" fill="#e3b341"/><text x="816" y="410" class="sub" text-anchor="end">2</text><text x="626" y="442" class="sub">TypeScript</text><rect x="736" y="428" width="70" height="12" rx="6" fill="#1f2937"/><rect x="736" y="428" width="3" height="12" rx="6" fill="#f85149"/><text x="816" y="440" class="sub" text-anchor="end">2</text><text x="626" y="472" class="sub">Go</text><rect x="736" y="458" width="70" height="12" rx="6" fill="#1f2937"/><rect x="736" y="458" width="1" height="12" rx="6" fill="#8b949e"/><text x="816" y="470" class="sub" text-anchor="end">1</text><rect x="46" y="545" width="800" height="52" rx="14" fill="#0b1220" stroke="#30363d"/><text x="70" y="576" class="panel-title">GitHub since 2023</text><text x="250" y="576" class="sub">Security learning · SOC · Web security · Mobile security · Research notes</text></svg>